# xmcd CD database file
#
# Track frame offsets:
#        195
#        16912
#        42337
#        55687
#        71625
#        85462
#        109800
#        131512
#        149475
#
# Disc length: 2264 seconds
#
# Revision: 0
# Processed by: cddbd v1.5.2PL0 Copyright (c) Steve Scherf et al.
# Submitted via: CUERipper 2.1.5
#
DISCID=7d08d609
DTITLE=James Booker - New Orleans Piano Wizard: Live!
DYEAR=1992
DGENRE=Boogie/Blues
TTITLE0=On The Sunny Side Of The Street
TTITLE1=Black Night
TTITLE2=Keep On Gwine
TTITLE3=Come Rain Or Come Shine
TTITLE4=Something Stupid
TTITLE5=Please Send Me Someone To Love
TTITLE6=Tell Me How Do You Feel
TTITLE7=Let Them Talk
TTITLE8=Come In My House
EXTD=
EXTT0=
EXTT1=
EXTT2=
EXTT3=
EXTT4=
EXTT5=
EXTT6=
EXTT7=
EXTT8=
PLAYORDER=
